<?xml version="1.0" encoding="UTF-8" ?>
<!DOCTYPE svg PUBLIC "-//W3C//DTD SVG 1.1//EN" "http://www.w3.org/Graphics/SVG/1.1/DTD/svg11.dtd">
<svg width="250pt" height="164pt" viewBox="0 0 250 164" version="1.1" xmlns="http://www.w3.org/2000/svg">
<g id="#ffffffff">
<path fill="#ffffff" opacity="1.00" d=" M 78.46 21.61 C 102.42 12.31 127.40 5.00 153.07 2.59 C 159.40 1.82 165.71 3.05 172.05 2.76 C 188.11 2.73 204.68 5.98 218.25 14.97 C 235.09 25.94 245.80 45.07 248.06 64.87 C 249.18 84.65 246.64 105.64 235.53 122.54 C 226.36 136.88 211.41 146.18 196.23 153.11 C 173.89 160.63 150.25 163.70 126.73 164.00 L 123.19 164.00 C 100.26 163.60 77.25 160.99 55.12 154.79 C 44.20 150.98 33.81 145.56 24.46 138.74 C 15.21 131.86 6.92 123.00 3.02 111.97 C -0.64 100.67 0.18 87.96 5.25 77.23 C 12.25 62.39 25.00 51.24 38.40 42.25 C 50.91 33.87 64.55 27.31 78.46 21.61 M 143.52 8.75 C 136.30 9.84 129.09 11.08 122.01 12.90 C 94.63 19.78 67.75 29.70 43.75 44.73 C 30.27 53.50 17.24 64.26 9.98 78.93 C 4.88 89.47 4.29 102.35 8.88 113.16 C 14.94 126.12 26.76 135.21 38.96 142.04 C 44.85 145.28 50.98 148.14 57.36 150.28 C 78.39 156.05 100.23 158.46 121.99 158.90 C 146.29 159.07 170.80 156.30 193.94 148.66 C 207.08 142.48 220.26 134.93 229.01 123.00 C 241.79 106.34 244.31 84.28 242.89 63.94 C 240.35 45.27 229.62 27.41 213.23 17.75 C 199.44 9.35 182.88 7.39 167.03 7.83 C 159.19 6.94 151.30 7.58 143.52 8.75 Z" />
<path fill="#ffffff" opacity="1.00" d=" M 152.04 37.02 C 157.35 31.16 164.76 26.04 173.06 27.06 C 179.78 27.25 183.97 33.96 184.60 40.05 C 188.47 37.53 192.24 34.57 196.96 33.84 C 205.51 32.17 215.02 34.56 221.31 40.70 C 227.33 46.76 227.89 56.43 224.80 64.05 C 229.20 65.91 232.67 69.85 233.55 74.60 C 234.68 80.92 234.00 87.88 230.26 93.28 C 227.45 97.17 223.62 100.25 219.38 102.45 C 209.00 107.93 197.37 110.28 185.91 112.30 C 175.54 113.51 163.38 113.81 155.41 105.87 C 152.12 110.29 147.18 113.97 141.44 113.89 C 146.09 127.67 127.59 141.23 115.93 132.54 C 108.68 139.03 95.51 138.41 89.86 130.10 C 88.23 127.96 87.61 125.28 87.32 122.66 C 83.88 123.47 80.15 123.90 76.87 122.25 C 73.40 125.43 68.88 126.96 64.24 127.23 C 62.50 131.90 59.12 136.50 54.01 137.67 C 50.59 138.24 46.70 138.39 43.71 136.34 C 40.26 134.07 38.05 130.43 36.11 126.88 C 30.59 115.75 28.14 103.36 27.15 91.06 C 26.89 83.18 26.59 75.03 29.33 67.50 C 31.06 62.20 36.30 58.23 41.89 58.09 C 47.75 57.75 53.09 60.75 57.91 63.74 C 62.79 58.09 71.10 55.60 77.97 59.07 C 82.18 54.89 87.82 51.50 93.97 52.13 C 99.06 52.11 103.02 56.22 104.70 60.72 C 108.60 56.56 114.20 53.73 120.03 54.70 C 120.50 48.31 122.18 41.53 127.16 37.12 C 131.68 33.15 137.82 30.35 143.94 31.30 C 147.36 31.83 150.13 34.24 152.04 37.02 M 168.31 36.51 C 162.44 38.96 156.32 44.07 156.66 51.03 C 156.88 63.38 156.09 75.78 157.56 88.07 C 158.24 93.15 159.81 98.60 164.16 101.76 C 170.44 106.71 178.96 106.13 186.41 105.11 C 196.07 103.23 205.71 100.77 214.74 96.79 C 218.67 94.99 222.80 92.87 225.09 89.02 C 227.41 85.50 227.36 81.00 226.51 77.02 C 226.04 74.91 224.39 72.59 221.91 73.38 C 217.93 74.29 215.03 77.58 211.64 79.67 C 207.68 82.21 203.05 85.76 198.13 84.02 C 194.73 81.17 195.15 76.04 194.77 72.00 C 195.38 66.49 195.46 59.26 201.12 56.36 C 206.17 55.91 206.34 63.22 210.91 64.06 C 215.59 64.82 220.25 60.74 220.26 56.03 C 220.80 50.64 216.62 45.83 211.79 44.00 C 208.07 42.27 203.86 42.74 199.89 42.90 C 193.31 44.35 188.42 49.82 186.06 55.92 C 182.92 63.20 183.47 71.25 183.32 78.98 C 183.18 83.27 183.93 87.78 182.25 91.86 C 181.76 93.21 180.32 94.04 178.91 93.80 C 176.54 93.70 175.67 90.92 175.44 88.97 C 174.43 75.95 176.56 63.00 177.54 50.06 C 177.69 45.96 177.70 41.74 176.29 37.83 C 174.68 35.12 170.85 35.84 168.31 36.51 M 138.03 41.14 C 133.04 44.18 127.71 49.46 129.41 55.88 C 131.90 65.47 136.24 74.89 135.70 85.02 C 135.52 89.34 135.55 94.81 131.51 97.49 C 128.77 99.05 125.73 96.77 124.97 94.07 C 122.19 86.17 124.53 77.62 122.73 69.54 C 122.35 67.27 121.91 64.11 119.08 63.75 C 114.46 63.39 110.90 67.09 108.50 70.59 C 104.79 75.67 106.69 82.28 108.06 87.85 C 108.73 91.40 109.77 96.00 106.67 98.74 C 105.35 100.23 103.51 98.55 102.61 97.45 C 99.50 93.30 99.66 87.88 99.40 82.96 C 98.55 76.99 98.33 70.90 96.69 65.06 C 96.23 63.62 95.56 61.83 93.93 61.42 C 89.17 60.55 85.21 64.23 82.44 67.62 C 79.66 71.33 81.22 76.08 81.99 80.17 C 83.31 86.44 86.44 92.54 85.53 99.10 C 85.25 101.92 83.19 104.93 80.07 104.80 C 78.38 104.26 77.54 102.42 76.97 100.88 C 75.85 92.98 75.21 84.95 76.29 77.00 C 76.32 73.40 76.40 68.10 72.07 66.93 C 67.29 65.72 62.74 70.06 61.42 74.38 C 60.30 83.13 65.02 91.27 64.83 99.98 C 64.65 103.16 65.78 107.37 62.64 109.47 C 60.94 109.98 58.59 110.19 57.45 108.50 C 54.62 105.50 54.47 100.98 54.88 97.11 C 55.75 91.75 55.03 86.30 55.62 80.92 C 55.73 78.47 56.50 75.41 54.39 73.54 C 50.90 70.54 46.79 67.67 42.05 67.38 C 39.19 66.95 36.67 69.32 36.02 71.97 C 34.56 76.83 35.17 81.96 35.03 86.96 C 34.79 95.72 36.07 104.46 37.81 113.03 C 38.99 118.72 40.96 124.55 44.96 128.90 C 46.86 131.05 50.59 131.98 52.84 129.84 C 55.50 126.86 56.21 122.78 57.45 119.12 C 58.97 119.49 60.49 119.87 62.02 120.25 C 66.85 119.79 71.19 117.16 73.98 113.21 C 76.81 114.50 79.71 115.92 82.92 115.67 C 90.41 116.22 96.48 110.45 100.03 104.43 C 103.07 107.96 107.07 111.74 112.06 111.53 C 117.44 110.74 120.45 105.52 122.68 101.10 C 126.82 104.38 131.59 107.49 137.07 107.56 C 143.55 108.15 149.93 103.11 150.95 96.69 C 152.39 87.50 151.38 78.16 151.30 68.91 C 150.00 59.97 149.20 50.74 145.56 42.35 C 144.52 39.27 140.31 39.90 138.03 41.14 M 114.10 118.73 C 112.34 116.68 110.85 114.00 107.98 113.42 C 104.18 112.96 99.61 112.65 96.84 115.85 C 91.94 120.30 95.28 129.07 101.36 130.42 C 106.74 132.07 114.17 128.38 113.92 122.23 C 115.89 123.83 116.89 126.54 119.52 127.27 C 124.86 129.76 131.86 126.52 133.53 120.91 C 134.55 116.61 131.57 112.06 127.48 110.73 C 121.90 108.83 113.61 111.86 114.10 118.73 Z" />
</g>
<g id="#53bb96ff">
<path fill="#009688" opacity="1.00" d=" M 143.52 8.75 C 151.30 7.58 159.19 6.94 167.03 7.83 C 182.88 7.39 199.44 9.35 213.23 17.75 C 229.62 27.41 240.35 45.27 242.89 63.94 C 244.31 84.28 241.79 106.34 229.01 123.00 C 220.26 134.93 207.08 142.48 193.94 148.66 C 170.80 156.30 146.29 159.07 121.99 158.90 C 100.23 158.46 78.39 156.05 57.36 150.28 C 50.98 148.14 44.85 145.28 38.96 142.04 C 26.76 135.21 14.94 126.12 8.88 113.16 C 4.29 102.35 4.88 89.47 9.98 78.93 C 17.24 64.26 30.27 53.50 43.75 44.73 C 67.75 29.70 94.63 19.78 122.01 12.90 C 129.09 11.08 136.30 9.84 143.52 8.75 M 152.04 37.02 C 150.13 34.24 147.36 31.83 143.94 31.30 C 137.82 30.35 131.68 33.15 127.16 37.12 C 122.18 41.53 120.50 48.31 120.03 54.70 C 114.20 53.73 108.60 56.56 104.70 60.72 C 103.02 56.22 99.06 52.11 93.97 52.13 C 87.82 51.50 82.18 54.89 77.97 59.07 C 71.10 55.60 62.79 58.09 57.91 63.74 C 53.09 60.75 47.75 57.75 41.89 58.09 C 36.30 58.23 31.06 62.20 29.33 67.50 C 26.59 75.03 26.89 83.18 27.15 91.06 C 28.14 103.36 30.59 115.75 36.11 126.88 C 38.05 130.43 40.26 134.07 43.71 136.34 C 46.70 138.39 50.59 138.24 54.01 137.67 C 59.12 136.50 62.50 131.90 64.24 127.23 C 68.88 126.96 73.40 125.43 76.87 122.25 C 80.15 123.90 83.88 123.47 87.32 122.66 C 87.61 125.28 88.23 127.96 89.86 130.10 C 95.51 138.41 108.68 139.03 115.93 132.54 C 127.59 141.23 146.09 127.67 141.44 113.89 C 147.18 113.97 152.12 110.29 155.41 105.87 C 163.38 113.81 175.54 113.51 185.91 112.30 C 197.37 110.28 209.00 107.93 219.38 102.45 C 223.62 100.25 227.45 97.17 230.26 93.28 C 234.00 87.88 234.68 80.92 233.55 74.60 C 232.67 69.85 229.20 65.91 224.80 64.05 C 227.89 56.43 227.33 46.76 221.31 40.70 C 215.02 34.56 205.51 32.17 196.96 33.84 C 192.24 34.57 188.47 37.53 184.60 40.05 C 183.97 33.96 179.78 27.25 173.06 27.06 C 164.76 26.04 157.35 31.16 152.04 37.02 Z" />
</g>
<g id="#0e71b8ff">
<path fill="#1565C0" opacity="1.00" d=" M 168.31 36.51 C 170.85 35.84 174.68 35.12 176.29 37.83 C 177.70 41.74 177.69 45.96 177.54 50.06 C 176.56 63.00 174.43 75.95 175.44 88.97 C 175.67 90.92 176.54 93.70 178.91 93.80 C 180.32 94.04 181.76 93.21 182.25 91.86 C 183.93 87.78 183.18 83.27 183.32 78.98 C 183.47 71.25 182.92 63.20 186.06 55.92 C 188.42 49.82 193.31 44.35 199.89 42.90 C 203.86 42.74 208.07 42.27 211.79 44.00 C 216.62 45.83 220.80 50.64 220.26 56.03 C 220.25 60.74 215.59 64.82 210.91 64.06 C 206.34 63.22 206.17 55.91 201.12 56.36 C 195.46 59.26 195.38 66.49 194.77 72.00 C 195.15 76.04 194.73 81.17 198.13 84.02 C 203.05 85.76 207.68 82.21 211.64 79.67 C 215.03 77.58 217.93 74.29 221.91 73.38 C 224.39 72.59 226.04 74.91 226.51 77.02 C 227.36 81.00 227.41 85.50 225.09 89.02 C 222.80 92.87 218.67 94.99 214.74 96.79 C 205.71 100.77 196.07 103.23 186.41 105.11 C 178.96 106.13 170.44 106.71 164.16 101.76 C 159.81 98.60 158.24 93.15 157.56 88.07 C 156.09 75.78 156.88 63.38 156.66 51.03 C 156.32 44.07 162.44 38.96 168.31 36.51 Z" />
<path fill="#1565C0" opacity="1.00" d=" M 138.03 41.14 C 140.31 39.90 144.52 39.27 145.56 42.35 C 149.20 50.74 150.00 59.97 151.30 68.91 C 151.38 78.16 152.39 87.50 150.95 96.69 C 149.93 103.11 143.55 108.15 137.07 107.56 C 131.59 107.49 126.82 104.38 122.68 101.10 C 120.45 105.52 117.44 110.74 112.06 111.53 C 107.07 111.74 103.07 107.96 100.03 104.43 C 96.48 110.45 90.41 116.22 82.92 115.67 C 79.71 115.92 76.81 114.50 73.98 113.21 C 71.19 117.16 66.85 119.79 62.02 120.25 C 60.49 119.87 58.97 119.49 57.45 119.12 C 56.21 122.78 55.50 126.86 52.84 129.84 C 50.59 131.98 46.86 131.05 44.96 128.90 C 40.96 124.55 38.99 118.72 37.81 113.03 C 36.07 104.46 34.79 95.72 35.03 86.96 C 35.17 81.96 34.56 76.83 36.02 71.97 C 36.67 69.32 39.19 66.95 42.05 67.38 C 46.79 67.67 50.90 70.54 54.39 73.54 C 56.50 75.41 55.73 78.47 55.62 80.92 C 55.03 86.30 55.75 91.75 54.88 97.11 C 54.47 100.98 54.62 105.50 57.45 108.50 C 58.59 110.19 60.94 109.98 62.64 109.47 C 65.78 107.37 64.65 103.16 64.83 99.98 C 65.02 91.27 60.30 83.13 61.42 74.38 C 62.74 70.06 67.29 65.72 72.07 66.93 C 76.40 68.10 76.32 73.40 76.29 77.00 C 75.21 84.95 75.85 92.98 76.97 100.88 C 77.54 102.42 78.38 104.26 80.07 104.80 C 83.19 104.93 85.25 101.92 85.53 99.10 C 86.44 92.54 83.31 86.44 81.99 80.17 C 81.22 76.08 79.66 71.33 82.44 67.62 C 85.21 64.23 89.17 60.55 93.93 61.42 C 95.56 61.83 96.23 63.62 96.69 65.06 C 98.33 70.90 98.55 76.99 99.40 82.96 C 99.66 87.88 99.50 93.30 102.61 97.45 C 103.51 98.55 105.35 100.23 106.67 98.74 C 109.77 96.00 108.73 91.40 108.06 87.85 C 106.69 82.28 104.79 75.67 108.50 70.59 C 110.90 67.09 114.46 63.39 119.08 63.75 C 121.91 64.11 122.35 67.27 122.73 69.54 C 124.53 77.62 122.19 86.17 124.97 94.07 C 125.73 96.77 128.77 99.05 131.51 97.49 C 135.55 94.81 135.52 89.34 135.70 85.02 C 136.24 74.89 131.90 65.47 129.41 55.88 C 127.71 49.46 133.04 44.18 138.03 41.14 Z" />
<path fill="#1565C0" opacity="1.00" d=" M 114.10 118.73 C 113.61 111.86 121.90 108.83 127.48 110.73 C 131.57 112.06 134.55 116.61 133.53 120.91 C 131.86 126.52 124.86 129.76 119.52 127.27 C 116.89 126.54 115.89 123.83 113.92 122.23 C 114.17 128.38 106.74 132.07 101.36 130.42 C 95.28 129.07 91.94 120.30 96.84 115.85 C 99.61 112.65 104.18 112.96 107.98 113.42 C 110.85 114.00 112.34 116.68 114.10 118.73 Z" />
</g>
</svg>
